<?xml version="1.0" standalone="no"?>
<!DOCTYPE svg PUBLIC "-//W3C//DTD SVG 20010904//EN"
 "http://www.w3.org/TR/2001/REC-SVG-20010904/DTD/svg10.dtd">
<svg version="1.0" xmlns="http://www.w3.org/2000/svg"
 width="600.000000pt" height="408.000000pt" viewBox="0 0 600.000000 408.000000"
 preserveAspectRatio="xMidYMid meet">
<g transform="translate(0.000000,408.000000) scale(0.066667,-0.066667)"
fill="#000000" stroke="none">
<path d="M285 6114 c0 -3 -10 -96 -22 -206 -59 -529 -59 -910 -2 -1610 12
-149 30 -374 39 -500 61 -844 692 -1334 1838 -1428 291 -24 2571 -27 2925 -4
156 10 416 26 577 34 161 9 363 24 450 33 853 96 1450 -52 2127 -527 189 -132
353 -226 554 -315 253 -113 229 -119 229 57 l0 149 -176 85 c-180 86 -383 207
-529 315 -302 222 -692 400 -1054 481 -330 74 -532 78 -1323 29 -1319 -81
-1645 -89 -2813 -69 -1308 23 -1467 44 -1874 249 -496 250 -625 474 -669 1160
-12 187 -29 422 -37 521 -35 403 -19 1047 39 1488 l8 64 -144 0 c-78 0 -143
-3 -143 -6z"/>
<path d="M7068 1939 c-43 -34 -58 -121 -31 -173 53 -98 667 -563 895 -677 214
-107 1000 -414 1062 -414 3 0 6 67 6 148 l0 148 -139 49 c-745 259 -1017 412
-1533 861 -99 86 -197 108 -260 58z"/>
</g>
</svg>
